inDegrees=yes
name=ik_OwnShooting_orientations2.mot
DataType=double
version=3
OpenSimVersion=4.3-2021-08-27-4bc7ad9
endheader
time	pelvis_tilt	pelvis_list	pelvis_rotation	pelvis_tx	pelvis_ty	pelvis_tz	hip_flexion_r	hip_adduction_r	hip_rotation_r	knee_angle_r	knee_angle_r_beta	ankle_angle_r	subtalar_angle_r	mtp_angle_r	hip_flexion_l	hip_adduction_l	hip_rotation_l	knee_angle_l	knee_angle_l_beta	ankle_angle_l	subtalar_angle_l	mtp_angle_l	lumbar_extension	lumbar_bending	lumbar_rotation	arm_flex_r	arm_add_r	arm_rot_r	elbow_flex_r	pro_sup_r	wrist_flex_r	wrist_dev_r	arm_flex_l	arm_add_l	arm_rot_l	elbow_flex_l	pro_sup_l	wrist_flex_l	wrist_dev_l
11.2	1.704196233846441	-1.785386811842575	149.6673932329165	0	0.9399999999999999	0	44.99783251838205	-9.999999989062498	0	59.99838578019384	1.047169377746129	-4.99999985104177	0	0	44.99783251838205	-9.999999989062498	0	59.99838578019384	1.047169377746129	-4.99999985104177	0	0	10.66163348660752	-30.59586582260959	3.514056042196053	0.40328018518658	-119.9953964009607	52.47055249027935	65.267324645663	45.00000030435316	0	0	0	-14.92238388565411	0	75.00197282871375	45.00000030435316	0	0
11.21	1.700829508991294	-1.786553502739202	149.6605701190593	0	0.9399999999999999	0	44.99784219930452	-9.999999989056944	0	59.99839336694179	1.047169510159861	-4.999999851041846	0	0	44.99784219930452	-9.999999989056944	0	59.99839336694179	1.047169510159861	-4.999999851041846	0	0	9.4413354901383	-31.63555495332254	-1.798991562282511	10.63203376762209	-119.995647222433	55.128657693059	72.96620593815695	45.00000030388492	0	0	0	-14.92259052716054	0	75.00196480307086	45.00000030388492	0	0
11.22	1.714427391296156	-1.790161107293622	149.6658401362127	0	0.9399999999999999	0	44.99785131266504	-9.999999989051686	0	59.99840046479202	1.047169634040717	-4.999999851041915	0	0	44.99785131266504	-9.999999989051686	0	59.99840046479202	1.047169634040717	-4.999999851041915	0	0	8.274511435055997	-30.57357376559399	-6.764533264459989	20.25671231711745	-119.9956812930672	56.13825312934572	79.27042231412884	45.00000030344229	0	0	0	-14.92278450480716	0	75.00195724794628	45.00000030344229	0	0
11.23	1.722460726808721	-1.788209901015929	149.6664860406948	0	0.9399999999999999	0	44.99786000877643	-9.999999989046703	0	59.99840723963189	1.047169752283979	-4.999999851041986	0	0	44.99786000877643	-9.999999989046703	0	59.99840723963189	1.047169752283979	-4.999999851041986	0	0	6.991186267179489	-30.34532121319316	-12.30111507572209	29.56182512669565	-119.9959758542037	55.01905221257235	86.24245567894187	45.00000030302167	0	0	0	-14.92296988911426	0	75.00195003872797	45.00000030302167	0	0
11.24	1.730770650282431	-1.797634974116709	149.6705669472801	0	0.9399999999999999	0	44.99787092221511	-9.999999989040473	0	59.99841579646095	1.04716990162882	-4.99999985104207	0	0	44.99787092221511	-9.999999989040473	0	59.99841579646095	1.04716990162882	-4.99999985104207	0	0	5.61305731457705	-30.15524204809401	-18.28384171306002	37.92754436739029	-119.9963488238854	52.50167240658296	93.46689691746538	45.00000030249627	0	0	0	-14.92320338419463	0	75.00194099130891	45.00000030249627	0	0
11.25	1.755969217744681	-1.775288377017115	149.6805317564192	0	0.9399999999999999	0	44.9978953483874	-9.999999989023665	0	59.99843271948851	1.04717019699137	-4.999999851042307	0	0	44.9978953483874	-9.999999989023665	0	59.99843271948851	1.04717019699137	-4.999999851042307	0	0	4.866612240077557	-28.58116274772569	-22.70776105001969	44.84542180158551	-119.9965375061144	49.85485005293243	99.94951768496092	45.00000030112619	0	0	0	-14.92368075719942	0	75.00192074162636	45.00000030112619	0	0
11.26	1.75067966285963	-1.777741868695644	149.6843422364866	0	0.9399999999999999	0	44.99789655484141	-9.99999998902276	0	59.99843348543099	1.047170210359588	-4.999999851042321	0	0	44.99789655484141	-9.99999998902276	0	59.99843348543099	1.047170210359588	-4.999999851042321	0	0	3.855921475399029	-28.76822086474179	-27.00805656168141	48.63739636469688	-119.996827023582	48.85980280871051	104.7667166921968	45.00000030105344	0	0	0	-14.92370310256603	0	75.00191974145727	45.00000030105344	0	0
11.27	1.763332920704509	-1.774143292402112	149.6904846942607	0	0.9399999999999999	0	44.9979021278677	-9.999999989016722	0	59.99843683688103	1.047170268853426	-4.999999851042412	0	0	44.9979021278677	-9.999999989016722	0	59.99843683688103	1.047170268853426	-4.999999851042412	0	0	3.971700278408263	-27.93710398205995	-27.47383574799518	50.14099321575103	-119.9968170308301	47.52159927428053	106.0065512896184	45.00000030060251	0	0	0	-14.92379127847334	0	75.00191512133772	45.00000030060251	0	0
